<svg width="190" height="32" viewBox="0 0 190 32" fill="none" xmlns="http://www.w3.org/2000/svg">
<path d="M5.4 25L0.525 7.5H3.325L7.575 23.3H7.9L12.125 7.5H14.925L10.075 25H5.4ZM17.3785 25V12.675H19.9535V25H17.3785ZM18.6785 11C18.1785 11 17.7535 10.8417 17.4035 10.525C17.0702 10.1917 16.9035 9.76667 16.9035 9.25C16.9035 8.73333 17.0702 8.31667 17.4035 8C17.7535 7.66667 18.1785 7.5 18.6785 7.5C19.1952 7.5 19.6202 7.66667 19.9535 8C20.2868 8.31667 20.4535 8.73333 20.4535 9.25C20.4535 9.76667 20.2868 10.1917 19.9535 10.525C19.6202 10.8417 19.1952 11 18.6785 11ZM23.775 25V12.675H26.3V14.525H26.7C26.9333 14.025 27.35 13.5583 27.95 13.125C28.55 12.6917 29.4417 12.475 30.625 12.475C31.5583 12.475 32.3833 12.6833 33.1 13.1C33.8333 13.5167 34.4083 14.1083 34.825 14.875C35.2417 15.625 35.45 16.5333 35.45 17.6V25H32.875V17.8C32.875 16.7333 32.6083 15.95 32.075 15.45C31.5417 14.9333 30.8083 14.675 29.875 14.675C28.8083 14.675 27.95 15.025 27.3 15.725C26.6667 16.425 26.35 17.4417 26.35 18.775V25H23.775ZM39.1559 25V12.675H41.7309V25H39.1559ZM40.4559 11C39.9559 11 39.5309 10.8417 39.1809 10.525C38.8475 10.1917 38.6809 9.76667 38.6809 9.25C38.6809 8.73333 38.8475 8.31667 39.1809 8C39.5309 7.66667 39.9559 7.5 40.4559 7.5C40.9725 7.5 41.3975 7.66667 41.7309 8C42.0642 8.31667 42.2309 8.73333 42.2309 9.25C42.2309 9.76667 42.0642 10.1917 41.7309 10.525C41.3975 10.8417 40.9725 11 40.4559 11ZM51.2773 25.35C50.094 25.35 49.019 25.1 48.0523 24.6C47.1023 24.1 46.344 23.375 45.7773 22.425C45.2273 21.475 44.9523 20.3333 44.9523 19V18.675C44.9523 17.3417 45.2273 16.2083 45.7773 15.275C46.344 14.325 47.1023 13.6 48.0523 13.1C49.019 12.5833 50.094 12.325 51.2773 12.325C52.4607 12.325 53.469 12.5417 54.3023 12.975C55.1357 13.4083 55.8023 13.9833 56.3023 14.7C56.819 15.4167 57.1523 16.2083 57.3023 17.075L54.8023 17.6C54.719 17.05 54.544 16.55 54.2773 16.1C54.0107 15.65 53.6357 15.2917 53.1523 15.025C52.669 14.7583 52.0607 14.625 51.3273 14.625C50.6107 14.625 49.9607 14.7917 49.3773 15.125C48.8107 15.4417 48.3607 15.9083 48.0273 16.525C47.694 17.125 47.5273 17.8583 47.5273 18.725V18.95C47.5273 19.8167 47.694 20.5583 48.0273 21.175C48.3607 21.7917 48.8107 22.2583 49.3773 22.575C49.9607 22.8917 50.6107 23.05 51.3273 23.05C52.4107 23.05 53.2357 22.775 53.8023 22.225C54.369 21.6583 54.7273 20.9417 54.8773 20.075L57.3773 20.65C57.1773 21.5 56.819 22.2833 56.3023 23C55.8023 23.7167 55.1357 24.2917 54.3023 24.725C53.469 25.1417 52.4607 25.35 51.2773 25.35ZM60.3473 25V12.675H62.9223V25H60.3473ZM61.6473 11C61.1473 11 60.7223 10.8417 60.3723 10.525C60.0389 10.1917 59.8723 9.76667 59.8723 9.25C59.8723 8.73333 60.0389 8.31667 60.3723 8C60.7223 7.66667 61.1473 7.5 61.6473 7.5C62.1639 7.5 62.5889 7.66667 62.9223 8C63.2556 8.31667 63.4223 8.73333 63.4223 9.25C63.4223 9.76667 63.2556 10.1917 62.9223 10.525C62.5889 10.8417 62.1639 11 61.6473 11ZM71.4688 25.225C70.5354 25.225 69.7021 25.0167 68.9688 24.6C68.2354 24.1833 67.6604 23.5917 67.2438 22.825C66.8271 22.0583 66.6188 21.1417 66.6188 20.075V12.675H69.1938V19.9C69.1938 20.9667 69.4604 21.7583 69.9938 22.275C70.5271 22.775 71.2688 23.025 72.2188 23.025C73.2688 23.025 74.1104 22.675 74.7438 21.975C75.3938 21.2583 75.7188 20.2333 75.7188 18.9V12.675H78.2938V25H75.7688V23.15H75.3688C75.1354 23.65 74.7188 24.125 74.1188 24.575C73.5188 25.0083 72.6354 25.225 71.4688 25.225ZM87.1502 25.35C85.5835 25.35 84.2835 25 83.2502 24.3C82.2169 23.6 81.5835 22.5417 81.3502 21.125L83.7502 20.55C83.8835 21.2333 84.1085 21.775 84.4252 22.175C84.7419 22.575 85.1335 22.8583 85.6002 23.025C86.0835 23.1917 86.6002 23.275 87.1502 23.275C87.9669 23.275 88.5919 23.1167 89.0252 22.8C89.4752 22.4833 89.7002 22.075 89.7002 21.575C89.7002 21.075 89.4919 20.7083 89.0752 20.475C88.6585 20.2417 88.0419 20.05 87.2252 19.9L86.3752 19.75C85.5419 19.6 84.7835 19.3833 84.1002 19.1C83.4169 18.8167 82.8752 18.425 82.4752 17.925C82.0752 17.425 81.8752 16.7833 81.8752 16C81.8752 14.8333 82.3085 13.9333 83.1752 13.3C84.0419 12.65 85.1919 12.325 86.6252 12.325C88.0085 12.325 89.1419 12.6417 90.0252 13.275C90.9252 13.8917 91.5085 14.7333 91.7752 15.8L89.3752 16.475C89.2252 15.725 88.9085 15.2 88.4252 14.9C87.9419 14.5833 87.3419 14.425 86.6252 14.425C85.9252 14.425 85.3752 14.5583 84.9752 14.825C84.5752 15.075 84.3752 15.4333 84.3752 15.9C84.3752 16.4 84.5669 16.7667 84.9502 17C85.3502 17.2333 85.8835 17.4083 86.5502 17.525L87.4252 17.675C88.3085 17.825 89.1169 18.0333 89.8502 18.3C90.5835 18.5667 91.1585 18.95 91.5752 19.45C92.0085 19.95 92.2252 20.6167 92.2252 21.45C92.2252 22.6833 91.7669 23.6417 90.8502 24.325C89.9335 25.0083 88.7002 25.35 87.1502 25.35ZM95.235 25V12.675H97.76V14.125H98.16C98.36 13.6083 98.6766 13.2333 99.11 13C99.56 12.75 100.11 12.625 100.76 12.625H102.235V14.95H100.66C99.8266 14.95 99.1433 15.1833 98.61 15.65C98.0766 16.1 97.81 16.8 97.81 17.75V25H95.235ZM104.903 25V12.675H107.428V14.125H107.828C108.061 13.6917 108.436 13.3083 108.953 12.975C109.47 12.6417 110.17 12.475 111.053 12.475C111.97 12.475 112.703 12.6667 113.253 13.05C113.82 13.4167 114.245 13.8917 114.528 14.475H114.928C115.211 13.9083 115.62 13.4333 116.153 13.05C116.703 12.6667 117.478 12.475 118.478 12.475C119.278 12.475 119.986 12.6417 120.603 12.975C121.22 13.2917 121.711 13.775 122.078 14.425C122.445 15.0583 122.628 15.85 122.628 16.8V25H120.053V17C120.053 16.25 119.845 15.675 119.428 15.275C119.028 14.8583 118.453 14.65 117.703 14.65C116.903 14.65 116.261 14.9083 115.778 15.425C115.295 15.9417 115.053 16.6833 115.053 17.65V25H112.478V17C112.478 16.25 112.27 15.675 111.853 15.275C111.453 14.8583 110.878 14.65 110.128 14.65C109.328 14.65 108.686 14.9083 108.203 15.425C107.72 15.9417 107.478 16.6833 107.478 17.65V25H104.903ZM130.163 25.35C129.28 25.35 128.488 25.2 127.788 24.9C127.105 24.6 126.555 24.1583 126.138 23.575C125.738 22.9917 125.538 22.2833 125.538 21.45C125.538 20.6 125.738 19.9 126.138 19.35C126.555 18.7833 127.113 18.3583 127.813 18.075C128.53 17.7917 129.338 17.65 130.238 17.65H133.988V16.85C133.988 16.1333 133.772 15.5583 133.338 15.125C132.905 14.6917 132.238 14.475 131.338 14.475C130.455 14.475 129.78 14.6833 129.313 15.1C128.847 15.5167 128.538 16.0583 128.388 16.725L125.988 15.95C126.188 15.2833 126.505 14.6833 126.938 14.15C127.388 13.6 127.98 13.1583 128.713 12.825C129.447 12.4917 130.33 12.325 131.363 12.325C132.963 12.325 134.222 12.7333 135.138 13.55C136.055 14.3667 136.513 15.525 136.513 17.025V22.1C136.513 22.6 136.747 22.85 137.213 22.85H138.263V25H136.338C135.755 25 135.28 24.85 134.913 24.55C134.547 24.25 134.363 23.8417 134.363 23.325V23.25H133.988C133.855 23.5 133.655 23.7917 133.388 24.125C133.122 24.4583 132.73 24.75 132.213 25C131.697 25.2333 131.013 25.35 130.163 25.35ZM130.538 23.225C131.572 23.225 132.405 22.9333 133.038 22.35C133.672 21.75 133.988 20.9333 133.988 19.9V19.65H130.388C129.705 19.65 129.155 19.8 128.738 20.1C128.322 20.3833 128.113 20.8083 128.113 21.375C128.113 21.9417 128.33 22.3917 128.763 22.725C129.197 23.0583 129.788 23.225 130.538 23.225Z" fill="white"/>
<path d="M142.317 25.35C141.734 25.35 141.242 25.1583 140.842 24.775C140.459 24.3917 140.267 23.9 140.267 23.3C140.267 22.7 140.459 22.2167 140.842 21.85C141.242 21.4667 141.734 21.275 142.317 21.275C142.901 21.275 143.384 21.4667 143.767 21.85C144.167 22.2333 144.367 22.7167 144.367 23.3C144.367 23.9 144.167 24.3917 143.767 24.775C143.384 25.1583 142.901 25.35 142.317 25.35ZM152.605 25.35C151.589 25.35 150.647 25.1 149.78 24.6C148.914 24.1 148.214 23.3833 147.68 22.45C147.164 21.5 146.905 20.3583 146.905 19.025V18.65C146.905 17.3333 147.164 16.2 147.68 15.25C148.197 14.3 148.889 13.575 149.755 13.075C150.622 12.575 151.572 12.325 152.605 12.325C153.405 12.325 154.072 12.425 154.605 12.625C155.155 12.825 155.605 13.0833 155.955 13.4C156.305 13.7 156.572 14.0167 156.755 14.35H157.155V7.5H159.73V25H157.205V23.25H156.805C156.489 23.7833 156.005 24.2667 155.355 24.7C154.722 25.1333 153.805 25.35 152.605 25.35ZM153.33 23.1C154.447 23.1 155.364 22.7417 156.08 22.025C156.814 21.3083 157.18 20.2833 157.18 18.95V18.725C157.18 17.4083 156.822 16.3917 156.105 15.675C155.389 14.9583 154.464 14.6 153.33 14.6C152.23 14.6 151.314 14.9583 150.58 15.675C149.864 16.3917 149.505 17.4083 149.505 18.725V18.95C149.505 20.2833 149.864 21.3083 150.58 22.025C151.314 22.7417 152.23 23.1 153.33 23.1ZM169.171 25.35C167.921 25.35 166.829 25.0917 165.896 24.575C164.963 24.0417 164.229 23.3 163.696 22.35C163.179 21.3833 162.921 20.2667 162.921 19V18.7C162.921 17.4167 163.179 16.3 163.696 15.35C164.213 14.3833 164.929 13.6417 165.846 13.125C166.779 12.5917 167.854 12.325 169.071 12.325C170.254 12.325 171.288 12.5917 172.171 13.125C173.071 13.6417 173.771 14.3667 174.271 15.3C174.771 16.2333 175.021 17.325 175.021 18.575V19.55H165.546C165.579 20.6333 165.938 21.5 166.621 22.15C167.321 22.7833 168.188 23.1 169.221 23.1C170.188 23.1 170.913 22.8833 171.396 22.45C171.896 22.0167 172.279 21.5167 172.546 20.95L174.671 22.05C174.438 22.5167 174.096 23.0083 173.646 23.525C173.213 24.0417 172.638 24.475 171.921 24.825C171.204 25.175 170.288 25.35 169.171 25.35ZM165.571 17.575H172.396C172.329 16.6417 171.996 15.9167 171.396 15.4C170.796 14.8667 170.013 14.6 169.046 14.6C168.079 14.6 167.288 14.8667 166.671 15.4C166.071 15.9167 165.704 16.6417 165.571 17.575ZM180.531 25L176.381 12.675H179.106L182.381 23.1H182.781L186.056 12.675H188.781L184.631 25H180.531Z" fill="url(#paint0_linear_1704_6)"/>
<defs>
<linearGradient id="paint0_linear_1704_6" x1="190" y1="17.75" x2="139.868" y2="17.75" gradientUnits="userSpaceOnUse">
<stop stop-color="#4468D5"/>
<stop offset="1" stop-color="#9134EB"/>
</linearGradient>
</defs>
</svg>
